<svg width="80.029" height="15" version="1.0" xmlns="http://www.w3.org/2000/svg">
 <defs>
  <clipPath id="clipPath3442">
   <rect x="172" y="239.12" width="20.614" height="12.484"/>
  </clipPath>
 </defs>
 <g transform="translate(.020566 -.047116)">
  <g id="BY" transform="matrix(.9875 0 0 .93335 -323.9 -271.86)">
   <g transform="translate(158,54)">
    <rect x="170.5" y="237.86" width="80" height="15" fill="#fff" stroke="#000" stroke-width="1.0416"/>
    <rect x="172" y="239.36" width="77" height="12" fill-opacity=".49804"/>
    <path d="m172 239.38v12h20.335c1.3086-1.7503 2.1918-3.7845 2.1918-6 0-2.2007-0.86793-4.2572-2.1605-6z" fill="#fff" fill-opacity=".62745"/>
    <g transform="matrix(.96125 0 0 .96125 6.8342 9.507)" clip-path="url(#clipPath3442)">
     <path cx="296.35416" cy="264.3577" rx="22.939548" ry="22.939548" d="m190.06 245.36c2e-3 3.892-3.1509 7.0487-7.0426 7.0512-3.8917 2e-3 -7.0489-3.1507-7.0512-7.0426v-9e-3c-2e-3 -3.892 3.1509-7.0487 7.0426-7.0509 3.8922-2e-3 7.0489 3.1507 7.0512 7.0427v8e-3z" fill="#fff" type="arc"/>
     <path d="m188.75 239.62c1.5627 1.5627 2.3441 3.4764 2.3441 5.7398 0 2.2639-0.76791 4.1571-2.3037 5.6796-1.6299 1.6036-3.5562 2.4051-5.7789 2.4051-2.1959 0-4.0888-0.795-5.6784-2.385-1.5898-1.5898-2.3845-3.4895-2.3845-5.6997 0-2.2097 0.79476-4.123 2.3845-5.7398 1.5491-1.5632 3.4421-2.3446 5.6784-2.3446 2.2634 0 4.1759 0.78145 5.7385 2.3446zm-10.365 1.0513c-1.3212 1.3344-1.9815 2.8976-1.9815 4.6907 0 1.7926 0.65381 3.3425 1.9612 4.6496 1.3076 1.3076 2.8642 1.9612 4.6704 1.9612 1.8062 0 3.3761-0.66007 4.7106-1.981 1.267-1.2269 1.9007-2.7694 1.9007-4.6298 0-1.8463-0.64403-3.4134-1.9313-4.7008-1.287-1.287-2.847-1.9308-4.68-1.9308-1.833 1e-5 -3.3834 0.64705-4.6501 1.9408zm3.4767 3.902c-0.20188-0.44014-0.50407-0.66034-0.9071-0.66034-0.71249 0-1.0686 0.47976-1.0686 1.4388 0 0.95924 0.35612 1.4385 1.0686 1.4385 0.47049 0 0.80654-0.23347 1.0082-0.70144l0.9876 0.5259c-0.47074 0.83638-1.177 1.2547-2.1187 1.2547-0.72627 0-1.3081-0.22269-1.745-0.66759-0.43763-0.44539-0.65581-1.0593-0.65581-1.842 0-0.76893 0.2252-1.3794 0.67587-1.8315 0.45067-0.45218 1.0119-0.67816 1.6848-0.67816 0.99538 0 1.7081 0.39225 2.139 1.176zm4.6464 0c-0.20214-0.44014-0.49831-0.66034-0.88881-0.66034-0.72678 0-1.0904 0.47976-1.0904 1.4388 0 0.95924 0.36365 1.4385 1.0904 1.4385 0.47125 0 0.80127-0.23347 0.98963-0.70144l1.0097 0.5259c-0.46999 0.83638-1.1752 1.2547-2.1152 1.2547-0.72528 0-1.3058-0.22269-1.7425-0.66759-0.43587-0.44539-0.65429-1.0593-0.65429-1.842 0-0.76893 0.22168-1.3794 0.66483-1.8315 0.44289-0.45218 1.0067-0.67816 1.6918-0.67816 0.99362 0 1.7054 0.39225 2.1347 1.176z"/>
    </g>
   </g>
   <path d="m357.42 298.69c0.24548 1e-5 0.43161-0.0536 0.5584-0.16075 0.12678-0.10716 0.19017-0.26523 0.19018-0.4742-1e-5 -0.2063-0.0634-0.36303-0.19018-0.4702-0.12679-0.10984-0.31292-0.16476-0.5584-0.16477h-0.86186v1.2699h0.86186m0.0526 2.6243c0.31292 0 0.5476-0.0657 0.70407-0.19693 0.15915-0.13127 0.23873-0.32953 0.23873-0.59477 0-0.25988-0.0782-0.45412-0.23469-0.58272-0.15645-0.13128-0.39249-0.19691-0.70811-0.19692h-0.91446v1.5713h0.91446m1.4486-2.1581c0.33449 0.0965 0.59345 0.27461 0.7769 0.53449 0.18342 0.25988 0.27514 0.57869 0.27515 0.95646-1e-5 0.5787-0.19694 1.01-0.59077 1.294-0.39384 0.28399-0.9927 0.42598-1.7966 0.42598h-2.5856v-6h2.3388c0.83893 1e-5 1.4459 0.12593 1.8208 0.37777 0.37765 0.25185 0.56648 0.65506 0.56648 1.2096 0 0.29204-0.0688 0.5412-0.20635 0.74749-0.13758 0.20362-0.3372 0.355-0.59886 0.45413m0.91657-2.789h1.7035l1.3758 2.138 1.3757-2.138h1.7076l-2.3024 3.4722v2.5278h-1.5578v-2.5278l-2.3024-3.4722"/>
  </g>
  <g transform="matrix(.23438 0 0 .23438 38.15 .86743)">
   <circle cx="37.637" cy="28.806" r="28.276" fill="#fff"/>
   <path d="m37.443-3.5c8.988 0 16.57 3.085 22.742 9.257 6.208 6.21 9.315 13.791 9.315 22.743 0 8.991-3.049 16.476-9.145 22.456-6.476 6.363-14.113 9.544-22.912 9.544-8.649 0-16.153-3.144-22.514-9.43-6.285-6.286-9.429-13.808-9.429-22.57 0-8.761 3.144-16.342 9.429-22.742 6.172-6.173 13.675-9.258 22.514-9.258zm0.114 5.772c-7.276 0-13.428 2.553-18.457 7.657-5.22 5.334-7.829 11.525-7.829 18.572 0 7.086 2.59 13.22 7.77 18.398 5.181 5.182 11.352 7.771 18.514 7.771 7.123 0 13.334-2.607 18.629-7.828 5.029-4.838 7.543-10.952 7.543-18.343 0-7.276-2.553-13.465-7.656-18.571-5.104-5.104-11.276-7.656-18.514-7.656zm8.572 18.285v13.085h-3.656v15.542h-9.944v-15.541h-3.656v-13.086c0-0.572 0.2-1.057 0.599-1.457 0.401-0.399 0.887-0.6 1.457-0.6h13.144c0.533 0 1.01 0.2 1.428 0.6 0.417 0.4 0.628 0.886 0.628 1.457zm-13.087-8.228c0-3.008 1.485-4.514 4.458-4.514s4.457 1.504 4.457 4.514c0 2.971-1.486 4.457-4.457 4.457s-4.458-1.486-4.458-4.457z"/>
  </g>
  <text x="56.409039" y="11.187249" fill="#000000" font-family="sans-serif" font-size="10px" font-weight="bold" letter-spacing="0px" stroke-width="1px" word-spacing="0px" style="line-height:125%" xml:space="preserve"><tspan x="56.409039" y="11.187249">4.0</tspan></text>
 </g>
</svg>
